name D:\school\WTK\thesis\model\3dpredictsim\Results\Batchsim_tmt_linear_v2\Pog_s1_tmt_aCst_d05_k800_ig24_pas.mot
datacolumns 128
datarows 4
range 1.08754289 1.12016917
endheader
time	pelvis_tilt	pelvis_list	pelvis_rotation	pelvis_tx	pelvis_ty	pelvis_tz	hip_flexion_l	hip_adduction_l	hip_rotation_l	hip_flexion_r	hip_adduction_r	hip_rotation_r	knee_angle_l	knee_angle_r	ankle_angle_l	ankle_angle_r	subtalar_angle_l	subtalar_angle_r	tmt_angle_l	tmt_angle_r	mtp_angle_l	mtp_angle_r	lumbar_extension	lumbar_bending	lumbar_rotation	arm_flex_l	arm_add_l	arm_rot_l	arm_flex_r	arm_add_r	arm_rot_r	elbow_flex_l	elbow_flex_r	pro_sup_l	pro_sup_r	glut_med1_l/activation	glut_med2_l/activation	glut_med3_l/activation	glut_min1_l/activation	glut_min2_l/activation	glut_min3_l/activation	semimem_l/activation	semiten_l/activation	bifemlh_l/activation	bifemsh_l/activation	sar_l/activation	add_long_l/activation	add_brev_l/activation	add_mag1_l/activation	add_mag2_l/activation	add_mag3_l/activation	tfl_l/activation	pect_l/activation	grac_l/activation	glut_max1_l/activation	glut_max2_l/activation	glut_max3_l/activation	iliacus_l/activation	psoas_l/activation	quad_fem_l/activation	gem_l/activation	peri_l/activation	rect_fem_l/activation	vas_med_l/activation	vas_int_l/activation	vas_lat_l/activation	med_gas_l/activation	lat_gas_l/activation	soleus_l/activation	tib_post_l/activation	flex_dig_l/activation	flex_hal_l/activation	tib_ant_l/activation	per_brev_l/activation	per_long_l/activation	per_tert_l/activation	ext_dig_l/activation	ext_hal_l/activation	ercspn_l/activation	intobl_l/activation	extobl_l/activation	glut_med1_r/activation	glut_med2_r/activation	glut_med3_r/activation	glut_min1_r/activation	glut_min2_r/activation	glut_min3_r/activation	semimem_r/activation	semiten_r/activation	bifemlh_r/activation	bifemsh_r/activation	sar_r/activation	add_long_r/activation	add_brev_r/activation	add_mag1_r/activation	add_mag2_r/activation	add_mag3_r/activation	tfl_r/activation	pect_r/activation	grac_r/activation	glut_max1_r/activation	glut_max2_r/activation	glut_max3_r/activation	iliacus_r/activation	psoas_r/activation	quad_fem_r/activation	gem_r/activation	peri_r/activation	rect_fem_r/activation	vas_med_r/activation	vas_int_r/activation	vas_lat_r/activation	med_gas_r/activation	lat_gas_r/activation	soleus_r/activation	tib_post_r/activation	flex_dig_r/activation	flex_hal_r/activation	tib_ant_r/activation	per_brev_r/activation	per_long_r/activation	per_tert_r/activation	ext_dig_r/activation	ext_hal_r/activation	ercspn_r/activation	intobl_r/activation	extobl_r/activation	
          1.08754289	         -2.91270522	          0.87221231	          5.09528231	          1.35942861	          0.87132738	         -0.00244580	        -17.80100943	          1.14433853	          6.83131279	         26.85162669	         -0.30764057	         -2.34479562	         -6.51631471	         -8.29456831	         -9.60732117	          5.72960120	          8.17670866	          3.09399280	          1.34850194	          0.04063609	         27.83239391	         -0.09933475	          0.39772862	         -3.02182186	         -1.70804086	          3.34161207	        -13.47806655	         11.87579460	         -9.48386396	        -13.45285684	         10.91019015	         29.07434042	         17.89357982	         86.51662706	         86.51662706	          0.27696873	          0.09337686	          0.06319373	          0.25700588	          0.16035386	          0.09331135	          0.05000435	          0.05000039	          0.05000036	          0.05000038	          0.09092998	          0.07998861	          0.05000051	          0.05000095	          0.05000287	          0.05000208	          0.22566406	          0.05000331	          0.05000096	          0.05000770	          0.05000466	          0.05000337	          0.32387601	          0.60540203	          0.05000050	          0.05000440	          0.05906228	          0.26262042	          0.08919604	          0.10579515	          0.05009536	          0.18792589	          0.27391416	          0.24192417	          0.21166826	          0.21682112	          0.27660334	          0.05000004	          0.09747235	          0.16762064	          0.05000029	          0.05000009	          0.05000026	          0.05000001	          0.05000006	          0.05000008	          0.06977031	          0.05909181	          0.05363784	          0.05000078	          0.05000139	          0.05436304	          0.06976810	          0.05906456	          0.06976903	          0.05000147	          0.05000124	          0.05000115	          0.05656053	          0.07986644	          0.13834095	          0.14608746	          0.05000262	          0.05000215	          0.05693901	          0.05906673	          0.13137663	          0.16513765	          0.05000013	          0.05000017	          0.07658316	          0.05906405	          0.05005467	          0.05000161	          0.05000869	          0.07748793	          0.05000379	          0.05906244	          0.05906249	          0.05000029	          0.05906264	          0.05906322	          0.05906309	          0.47454393	          0.31025452	          0.20307364	          0.18923788	          0.48431598	          0.25835776	          0.05000050	          0.13556271	          0.13584291	
          1.09841831	         -2.89272596	          0.91385368	          5.24838389	          1.37662234	          0.86998266	         -0.00227593	        -17.53541342	          1.00029802	          6.57975736	         26.37635936	         -0.13776054	         -2.10660859	         -8.79164462	         -8.18173269	        -10.36404373	          5.22060818	          9.36419558	          2.63115332	          1.21747322	          0.04272658	         28.57489689	         -0.07772470	          0.62511606	         -2.82558681	         -1.77068969	          3.08177384	        -13.51143635	         12.21135803	        -10.71812473	        -13.45171681	         10.63143965	         29.97916221	         17.93427205	         86.51662706	         86.51662706	          0.23446964	          0.07904876	          0.05349720	          0.21757001	          0.13574858	          0.07899336	          0.05000170	          0.05000025	          0.05000022	          0.05000037	          0.07697783	          0.14779156	          0.20371347	          0.05001218	          0.05000625	          0.05000065	          0.19103734	          0.12771594	          0.05906034	          0.05000298	          0.05000160	          0.05000161	          0.27417917	          0.53796394	          0.06976768	          0.05000267	          0.05000078	          0.22232286	          0.10858952	          0.13583291	          0.13583520	          0.15908976	          0.23188364	          0.20480235	          0.17918912	          0.18355174	          0.23416046	          0.05000003	          0.08251594	          0.14746542	          0.05000019	          0.05000006	          0.05000021	          0.05312650	          0.05682978	          0.05603517	          0.10078965	          0.05002500	          0.28905584	          0.05906317	          0.05906300	          0.05000401	          0.05906283	          0.05000160	          0.05906354	          0.05000058	          0.05000755	          0.09580482	          0.11746248	          0.22265981	          0.21450196	          0.18015650	          0.05000036	          0.06940268	          0.05000438	          0.05000352	          0.11121804	          0.21692034	          0.05906288	          0.05123804	          0.06483202	          0.05000171	          0.12307498	          0.06839592	          0.25291317	          0.26143223	          0.21509473	          0.05000003	          0.05000006	          0.05000002	          0.05000002	          0.05000047	          0.05000039	          0.64820772	          0.34760554	          0.17644662	          0.53000048	          0.59116559	          0.39834927	          0.05000011	          0.11476140	          0.11499861	
          1.10929374	         -2.86589828	          0.94086827	          5.37534968	          1.39406051	          0.86845488	         -0.00210741	        -17.16862289	          0.85344595	          6.32326201	         25.79842022	          0.02584337	         -1.82946105	        -11.26405521	         -8.64695383	        -11.06098186	          4.48444548	         10.52326855	          2.16319075	          1.02819344	          0.04945326	         28.81236772	         -0.04158926	          0.86894425	         -2.60043083	         -1.82406930	          2.75960493	        -13.55355906	         12.50983982	        -11.95049631	        -13.46100234	         10.42564670	         30.87376463	         17.95923103	         86.51662706	         86.51662706	          0.19849170	          0.06691923	          0.05906171	          0.18418535	          0.11491882	          0.06687238	          0.06343699	          0.05000030	          0.05000063	          0.05000008	          0.06516626	          0.18827912	          0.36141872	          0.19375847	          0.05913101	          0.14666471	          0.16172386	          0.10811916	          0.05000049	          0.05012146	          0.05905938	          0.05906315	          0.23210799	          0.46642710	          0.05906266	          0.05906200	          0.05000115	          0.18820871	          0.11499801	          0.11499879	          0.11499513	          0.13467835	          0.19630245	          0.17337661	          0.15169364	          0.15538701	          0.19823003	          0.05000021	          0.06985453	          0.13516879	          0.05000024	          0.12176243	          0.05000076	          0.05834654	          0.06976834	          0.05906391	          0.19438008	          0.06979006	          0.25205021	          0.05000039	          0.05000038	          0.05000086	          0.05000013	          0.05000022	          0.05000066	          0.05000007	          0.05000026	          0.08110426	          0.09943867	          0.23699772	          0.25479677	          0.17836850	          0.05000266	          0.05875416	          0.05000105	          0.14889567	          0.16396137	          0.20007167	          0.05000013	          0.05000018	          0.18955614	          0.05776331	          0.10418999	          0.05996899	          0.26970356	          0.29059413	          0.22172129	          0.05000014	          0.05000042	          0.05000005	          0.05343148	          0.05906386	          0.05906322	          0.54874406	          0.36423082	          0.18759731	          0.44867516	          0.50234642	          0.33722496	          0.05000002	          0.09715193	          0.09735274	
          1.12016917	         -2.83470179	          0.95376320	          5.47633931	          1.41154215	          0.86672786	         -0.00195396	        -16.69754919	          0.71158391	          6.05931977	         25.09492320	          0.16888972	         -1.51881862	        -13.91779891	         -9.42574654	        -11.58794913	          3.91464043	         11.60916229	          1.65524380	          0.78278173	         -0.01986693	         28.28386626	         -0.19295277	          1.11034281	         -2.34962621	         -1.86602475	          2.40883969	        -13.60154390	         12.77855404	        -13.13840311	        -13.48554532	         10.33146720	         31.75144405	         17.93709909	         86.51662706	         86.51662706	          0.18201258	          0.05665091	          0.05000006	          0.15592484	          0.09728529	          0.05661131	          0.08775440	          0.05000128	          0.05000084	          0.05000117	          0.05906517	          0.18963548	          0.33392613	          0.16402774	          0.05005992	          0.12416021	          0.13690845	          0.09153897	          0.05001985	          0.05000125	          0.05000088	          0.05000129	          0.19649241	          0.42393813	          0.05000018	          0.05000055	          0.05000021	          0.15932917	          0.09735227	          0.09735292	          0.09734982	          0.11401274	          0.16618100	          0.14677298	          0.12841718	          0.13154401	          0.16781294	          0.07990399	          0.12348582	          0.11442976	          0.09450119	          0.20852398	          0.08243421	          0.08345557	          0.05906280	          0.05000098	          0.29565045	          0.27962987	          0.42583147	          0.25019427	          0.17473130	          0.26271357	          0.06976955	          0.08917948	          0.07580774	          0.06976940	          0.05068597	          0.06865939	          0.08418047	          0.20063194	          0.21570011	          0.18343385	          0.05000049	          0.05906065	          0.07734174	          0.21234431	          0.20333417	          0.20042222	          0.05000338	          0.05000078	          0.16046995	          0.05000339	          0.24443882	          0.05076711	          0.22831918	          0.24600422	          0.18769950	          0.05000018	          0.05000028	          0.05000005	          0.05000001	          0.05000103	          0.05000054	          0.61825090	          0.30834189	          0.15881164	          0.68039621	          0.61687376	          0.40369274	          0.05000015	          0.08224456	          0.08241453	
